<?xml version="1.0" standalone="no"?>
<!DOCTYPE svg PUBLIC "-//W3C//DTD SVG 20010904//EN"
 "http://www.w3.org/TR/2001/REC-SVG-20010904/DTD/svg10.dtd">
<svg version="1.0" xmlns="http://www.w3.org/2000/svg"
 width="225.000000pt" height="225.000000pt" viewBox="0 0 225.000000 225.000000"
 preserveAspectRatio="xMidYMid meet">
<metadata>
Created by potrace 1.11, written by Peter Selinger 2001-2013
</metadata>
<g transform="translate(0.000000,225.000000) scale(0.100000,-0.100000)"
fill="#000000" stroke="none">
<path d="M167 2234 c-63 -20 -128 -84 -150 -149 -15 -44 -17 -138 -17 -955 0
-1025 -3 -977 75 -1055 78 -78 30 -75 1050 -75 1021 0 970 -4 1049 76 80 79
76 28 76 1049 0 1020 3 972 -75 1050 -78 78 -30 75 -1054 74 -771 0 -913 -3
-954 -15z m1165 -423 c123 -39 189 -113 174 -195 -9 -48 -50 -93 -96 -107 -34
-10 -50 -8 -141 20 -117 36 -176 39 -237 11 -66 -30 -91 -103 -52 -152 26 -33
65 -51 207 -94 282 -85 387 -177 416 -365 35 -224 -104 -429 -333 -492 -89
-25 -148 -29 -263 -17 -200 20 -329 80 -357 166 -23 69 7 145 67 170 47 20 69
18 195 -22 147 -47 234 -50 300 -11 53 31 78 76 78 137 0 70 -42 101 -203 151
-277 85 -348 126 -405 234 -25 45 -27 60 -27 161 0 107 1 112 38 186 58 118
153 193 297 233 77 21 252 14 342 -14z"/>
</g>
</svg>
